<svg width="20" height="21" viewBox="0 0 20 21" fill="none" xmlns="http://www.w3.org/2000/svg">
<path d="M13.756 0C12.4805 0 11.38 0.875382 10.7047 2.20096C11.8302 3.55155 12.5055 5.40236 12.5055 7.52829C12.5055 8.25361 12.4304 8.90389 12.2804 9.55417C12.7556 9.82929 13.2308 10.0294 13.756 10.0294C15.8319 10.0294 17.5076 7.7784 17.5076 5.0272C17.5076 2.27599 15.8319 0.0250109 13.756 0.0250109V0ZM6.25273 2.50109C4.17682 2.50109 2.50109 4.75208 2.50109 7.50328C2.50109 10.2545 4.17682 12.5055 6.25273 12.5055C8.32864 12.5055 10.0044 10.2545 10.0044 7.50328C10.0044 4.75208 8.32864 2.50109 6.25273 2.50109ZM18.1329 10.4045C17.0575 11.6801 15.5818 12.4554 13.9061 12.5055C14.5814 13.4559 15.0066 14.6064 15.0066 15.8569V17.5076H20.0087V13.3558C20.0087 12.0553 19.2334 10.9298 18.1329 10.3795V10.4045ZM1.87582 12.9056C0.775339 13.4559 0 14.5814 0 15.8819V20.0338H12.5055V15.8819C12.5055 14.5814 11.7301 13.4559 10.6296 12.9056C9.50415 14.2312 7.97848 15.0066 6.25273 15.0066C4.52698 15.0066 3.00131 14.2062 1.87582 12.9056Z" fill="black"/>
</svg>
