<svg width="20" height="20" viewBox="0 0 20 20" fill="none" xmlns="http://www.w3.org/2000/svg">
<path d="M9.96362 0C4.45872 0 0 4.45872 0 9.96362C0 15.4685 4.45872 19.9272 9.96362 19.9272C15.4685 19.9272 19.9272 15.4685 19.9272 9.96362C19.9272 4.45872 15.4685 0 9.96362 0ZM9.96362 2.49091C10.7856 2.49091 11.5578 2.71509 12.3051 2.96418C11.782 3.46236 11.1842 3.91072 11.2838 4.35909C11.3834 4.80745 13.0025 4.6829 13.0025 5.60454C13.0025 6.27708 11.9563 6.47636 12.6787 7.24854C13.5505 8.12035 11.0845 9.68962 11.0347 10.8354C10.96 12.9029 13.1271 13.2516 14.8458 13.2516C15.892 13.2516 16.166 13.7498 16.0913 14.3476C14.7462 16.2656 12.4545 17.4613 9.93871 17.4613C8.99217 17.4613 8.12035 17.2371 7.29835 16.9132C7.84635 15.8173 6.6009 13.6502 5.43017 12.9527C4.85727 12.3798 3.63672 12.604 2.93927 12.33C2.71509 11.6574 2.49091 10.9849 2.466 10.2376C2.54072 10.1131 2.66527 10.0134 2.86454 10.0134C3.33781 10.0134 3.98545 10.96 4.33418 10.8603C4.78254 10.7607 2.49091 7.59726 3.562 6.97454C4.06018 6.67563 5.05654 7.94599 4.73272 6.57599C4.43381 5.30563 5.62945 5.87854 6.37672 5.55472C7.02435 5.28072 7.49763 4.53345 6.70054 4.08509C6.55108 4.01036 6.37672 3.83599 6.15254 3.61181C7.27344 2.93927 8.56872 2.51581 9.96362 2.51581V2.49091ZM15.7176 5.20599C16.166 5.75399 16.5147 6.35181 16.8136 6.99944V7.07417C16.714 7.24854 16.5396 7.34817 16.2656 7.62217C15.5682 8.31962 15.4685 7.09908 15.1696 6.84999C14.8458 6.55108 13.6751 6.89981 13.5256 6.52617C13.3513 6.07781 14.7711 5.47999 15.7176 5.20599Z" fill="black"/>
</svg>
